HIERARCHY
ROOT Hips
{
  OFFSET 5.84602e-005 68.8428 3.50346
  CHANNELS 6 Xposition Yposition Zposition Zrotation Xrotation Yrotation
  JOINT Spine
  {
    OFFSET 0 8.597 -4.6522
    CHANNELS 3 Zrotation Xrotation Yrotation
    JOINT Spine1
    {
      OFFSET 0 7.8454 0.4098
      CHANNELS 3 Zrotation Xrotation Yrotation
      JOINT Spine2
      {
        OFFSET 0 9.7078 -2.1609
        CHANNELS 3 Zrotation Xrotation Yrotation
        JOINT Neck
        {
          OFFSET 0 21.8761 -0.4549
          CHANNELS 3 Zrotation Xrotation Yrotation
          JOINT Head
          {
            OFFSET 0 12.3537 3.3602
            CHANNELS 3 Zrotation Xrotation Yrotation
            End Site
            {
              OFFSET 0.0001 18.9506 0.5657
            }
          }
        }
        JOINT LeftShoulder
        {
          OFFSET 2.2086 21.1115 7.2329
          CHANNELS 3 Zrotation Xrotation Yrotation
          JOINT LeftArm
          {
            OFFSET 13.1193 3.0282 -4.8998
            CHANNELS 3 Zrotation Xrotation Yrotation
            JOINT LeftForeArm
            {
              OFFSET 27.4081 -0.0973053 -0.2375
              CHANNELS 3 Zrotation Xrotation Yrotation
              JOINT LeftHand
              {
                OFFSET 22.8641 0.0662994 -0.1369
                CHANNELS 3 Zrotation Xrotation Yrotation
                JOINT LeftHandIndex1
                {
                  OFFSET 8.8614 0.775009 2.4612
                  CHANNELS 3 Zrotation Xrotation Yrotation
                  JOINT LeftHandIndex2
                  {
                    OFFSET 3.3146 -0.808304 0.5841
                    CHANNELS 3 Zrotation Xrotation Yrotation
                    JOINT LeftHandIndex3
                    {
                      OFFSET 2.2628 -0.552002 0.3989
                      CHANNELS 3 Zrotation Xrotation Yrotation
                      End Site
                      {
                        OFFSET 1.6102 -0.4807 0.2612
                      }
                    }
                  }
                }
                JOINT LeftHandMiddle1
                {
                  OFFSET 8.9937 0.895004 0.2143
                  CHANNELS 3 Zrotation Xrotation Yrotation
                  JOINT LeftHandMiddle2
                  {
                    OFFSET 4.0984 0.0113983 -0.0242
                    CHANNELS 3 Zrotation Xrotation Yrotation
                    JOINT LeftHandMiddle3
                    {
                      OFFSET 2.2716 0.00689697 -0.0138001
                      CHANNELS 3 Zrotation Xrotation Yrotation
                      End Site
                      {
                        OFFSET 2.0404 -0.1441 0.0027
                      }
                    }
                  }
                }
                JOINT LeftHandRing1
                {
                  OFFSET 8.5234 0.597198 -2.0164
                  CHANNELS 3 Zrotation Xrotation Yrotation
                  JOINT LeftHandRing2
                  {
                    OFFSET 3.7188 -0.188293 -0.2328
                    CHANNELS 3 Zrotation Xrotation Yrotation
                    JOINT LeftHandRing3
                    {
                      OFFSET 2.1191 -0.106598 -0.1332
                      CHANNELS 3 Zrotation Xrotation Yrotation
                      End Site
                      {
                        OFFSET 1.8737 -0.2304 -0.0886
                      }
                    }
                  }
                }
                JOINT LeftHandPinky1
                {
                  OFFSET 7.9094 -0.601089 -3.4825
                  CHANNELS 3 Zrotation Xrotation Yrotation
                  JOINT LeftHandPinky2
                  {
                    OFFSET 2.2874 -0.477005 -0.6314
                    CHANNELS 3 Zrotation Xrotation Yrotation
                    JOINT LeftHandPinky3
                    {
                      OFFSET 1.6774 -0.349396 -0.4633
                      CHANNELS 3 Zrotation Xrotation Yrotation
                      End Site
                      {
                        OFFSET 1.4888 -0.4091 -0.3416
                      }
                    }
                  }
                }
                JOINT LeftHandThumb1
                {
                  OFFSET 1.833 -1.3875 1.3896
                  CHANNELS 3 Zrotation Xrotation Yrotation
                  JOINT LeftHandThumb2
                  {
                    OFFSET 3.4129 -1.121 2.5732
                    CHANNELS 3 Zrotation Xrotation Yrotation
                    JOINT LeftHandThumb3
                    {
                      OFFSET 2.2474 -0.804199 1.6192
                      CHANNELS 3 Zrotation Xrotation Yrotation
                      End Site
                      {
                        OFFSET 1.6527 -0.5689 1.1317
                      }
                    }
                  }
                }
              }
            }
          }
        }
        JOINT RightShoulder
        {
          OFFSET -2.2086 21.1115 7.2329
          CHANNELS 3 Zrotation Xrotation Yrotation
          JOINT RightArm
          {
            OFFSET -13.1216 3.0287 -4.9007
            CHANNELS 3 Zrotation Xrotation Yrotation
            JOINT RightForeArm
            {
              OFFSET -27.4081 -0.0973053 -0.2375
              CHANNELS 3 Zrotation Xrotation Yrotation
              JOINT RightHand
              {
                OFFSET -22.8641 0.0664063 -0.1369
                CHANNELS 3 Zrotation Xrotation Yrotation
                JOINT RightHandIndex1
                {
                  OFFSET -8.8614 0.774994 2.4612
                  CHANNELS 3 Zrotation Xrotation Yrotation
                  JOINT RightHandIndex2
                  {
                    OFFSET -3.3146 -0.808304 0.5841
                    CHANNELS 3 Zrotation Xrotation Yrotation
                    JOINT RightHandIndex3
                    {
                      OFFSET -2.2628 -0.552002 0.3989
                      CHANNELS 3 Zrotation Xrotation Yrotation
                      End Site
                      {
                        OFFSET -1.6102 -0.4807 0.2612
                      }
                    }
                  }
                }
                JOINT RightHandMiddle1
                {
                  OFFSET -8.9937 0.894989 0.2143
                  CHANNELS 3 Zrotation Xrotation Yrotation
                  JOINT RightHandMiddle2
                  {
                    OFFSET -4.0984 0.0113983 -0.0242
                    CHANNELS 3 Zrotation Xrotation Yrotation
                    JOINT RightHandMiddle3
                    {
                      OFFSET -2.2716 0.00691223 -0.0138001
                      CHANNELS 3 Zrotation Xrotation Yrotation
                      End Site
                      {
                        OFFSET -2.0404 -0.1441 0.0027
                      }
                    }
                  }
                }
                JOINT RightHandRing1
                {
                  OFFSET -8.5234 0.597198 -2.0164
                  CHANNELS 3 Zrotation Xrotation Yrotation
                  JOINT RightHandRing2
                  {
                    OFFSET -3.7188 -0.188309 -0.2328
                    CHANNELS 3 Zrotation Xrotation Yrotation
                    JOINT RightHandRing3
                    {
                      OFFSET -2.1191 -0.106598 -0.1332
                      CHANNELS 3 Zrotation Xrotation Yrotation
                      End Site
                      {
                        OFFSET -1.8737 -0.2304 -0.0886
                      }
                    }
                  }
                }
                JOINT RightHandPinky1
                {
                  OFFSET -7.9094 -0.601105 -3.4825
                  CHANNELS 3 Zrotation Xrotation Yrotation
                  JOINT RightHandPinky2
                  {
                    OFFSET -2.2874 -0.477005 -0.6314
                    CHANNELS 3 Zrotation Xrotation Yrotation
                    JOINT RightHandPinky3
                    {
                      OFFSET -1.6774 -0.349396 -0.4633
                      CHANNELS 3 Zrotation Xrotation Yrotation
                      End Site
                      {
                        OFFSET -1.4888 -0.4091 -0.3416
                      }
                    }
                  }
                }
                JOINT RightHandThumb1
                {
                  OFFSET -1.833 -1.38751 1.3896
                  CHANNELS 3 Zrotation Xrotation Yrotation
                  JOINT RightHandThumb2
                  {
                    OFFSET -3.41299 -1.12099 2.5732
                    CHANNELS 3 Zrotation Xrotation Yrotation
                    JOINT RightHandThumb3
                    {
                      OFFSET -2.24741 -0.804108 1.6192
                      CHANNELS 3 Zrotation Xrotation Yrotation
                      End Site
                      {
                        OFFSET -1.6527 -0.5689 1.1317
                      }
                    }
                  }
                }
              }
            }
          }
        }
      }
    }
  }
  JOINT RightUpLeg
  {
    OFFSET -9.1966 3.8861 -0.7581
    CHANNELS 3 Zrotation Xrotation Yrotation
    JOINT RightLeg
    {
      OFFSET -0.7359 -41.0265 0
      CHANNELS 3 Zrotation Xrotation Yrotation
      JOINT RightFoot
      {
        OFFSET 0 -40.2855 0
        CHANNELS 3 Zrotation Xrotation Yrotation
        JOINT RightToeBase
        {
          OFFSET 0 -5.6122 11.7359
          CHANNELS 3 Zrotation Xrotation Yrotation
          End Site
          {
            OFFSET 0 0 7.8731
          }
        }
      }
    }
  }
  JOINT LeftUpLeg
  {
    OFFSET 9.1965 3.8864 -0.7581
    CHANNELS 3 Zrotation Xrotation Yrotation
    JOINT LeftLeg
    {
      OFFSET 0.7359 -41.0268 0
      CHANNELS 3 Zrotation Xrotation Yrotation
      JOINT LeftFoot
      {
        OFFSET 0 -40.2855 0
        CHANNELS 3 Zrotation Xrotation Yrotation
        JOINT LeftToeBase
        {
          OFFSET 0 -5.6122 11.7359
          CHANNELS 3 Zrotation Xrotation Yrotation
          End Site
          {
            OFFSET 0 0 7.8731
          }
        }
      }
    }
  }
}
MOTION
Frames:	4
Frame Time:	0.0333333
-0.525114 63.5795 4.57595 -0 -5.54856 -0 -0.17105 2.60519 3.05598 -0.481831 5.19779 6.1292 -0.48183 5.19778 6.1292 20.8055 -27.5259 -9.54166 -0.00144834 7.9373 -10.0029 26.2496 11.1117 -74.8024 -38.466 -14.5307 -12.5497 -56.6918 -41.2859 -79.5798 -31.3311 29.7299 10.8408 3.41691e-007 -2.27085e-007 -3.41187e-007 -4.44198e-007 2.9521e-007 4.43543e-007 4.78368e-007 -3.17918e-007 -4.77661e-007 3.41691e-007 -2.27085e-007 -3.41187e-007 -0.0146215 -9.36404e-005 -3.22192e-006 4.78368e-007 -3.17857e-007 -4.77702e-007 3.41691e-007 -2.27085e-007 -3.41187e-007 -0.0187053 -0.00117616 6.27751e-005 4.78363e-007 -3.17841e-007 -4.77718e-007 3.41691e-007 -2.27085e-007 -3.41187e-007 -0.0122302 -0.00323815 0.000674383 4.78353e-007 -3.1787e-007 -4.77709e-007 3.41691e-007 -2.27085e-007 -3.41187e-007 -4.44198e-007 2.9521e-007 4.43543e-007 4.78368e-007 -3.17918e-007 -4.77661e-007 1.82731 -20.8621 11.872 72.455 4.80031 19.7092 -13.5935 -4.89731 38.877 68.9801 2.37212 -15.5054 1.59028e-015 7.95139e-016 -4.77083e-015 1.59028e-015 -7.95139e-016 1.19271e-015 1.59028e-015 0 1.09332e-015 1.59028e-015 7.95139e-016 -4.77083e-015 0.0149999 -9.08499e-005 -1.86575e-006 1.59028e-015 1.59028e-015 -6.4605e-015 1.59028e-015 7.95139e-016 -4.77083e-015 0.0190412 -0.00118635 -6.01655e-005 -5.37945e-032 -7.95139e-016 -3.8763e-015 1.59028e-015 7.95139e-016 -4.77083e-015 0.0122386 -0.00323996 -0.000669905 -1.59028e-015 2.38542e-015 -1.47101e-014 1.59028e-015 7.95139e-016 -4.77083e-015 1.59028e-015 -7.95139e-016 1.19271e-015 1.59028e-015 0 1.09332e-015 -17.8836 -12.8192 -11.6261 0.417446 31.6929 0.211665 21.0008 -9.55073 -2.53051 -1.98785e-015 -1.98785e-016 -9.54166e-015 7.76703 -18.1176 13.8895 3.03431 47.1475 -1.96595 -12.6081 -22.0281 1.21551 1.74909e-008 1.05036e-007 7.11685e-009 
-0.525288 63.6872 4.36847 -0 -5.07254 -0 -0.183603 2.50557 3.05663 -0.501543 4.99776 6.13007 -0.501543 4.99775 6.13007 20.8413 -27.6055 -9.4416 -0.00144717 7.71914 -10.0029 26.2496 11.1118 -74.8024 -38.466 -14.5307 -12.5497 -56.6918 -41.2859 -79.5798 -31.3426 29.7295 10.8357 -2.39243e-007 1.58913e-007 2.38802e-007 6.8355e-008 -4.54038e-008 -6.82291e-008 6.8355e-008 -4.54038e-008 -6.82291e-008 -2.39243e-007 1.58913e-007 2.38802e-007 -0.014541 -8.28054e-005 6.79769e-006 1.55832e-006 -5.83431e-008 1.3731e-006 -2.39243e-007 1.58913e-007 2.38802e-007 -0.0187147 -0.00117474 5.52249e-005 6.83544e-008 -4.53926e-008 -6.82372e-008 -2.39243e-007 1.58913e-007 2.38802e-007 -0.0123415 -0.00326946 0.000687245 -1.42142e-006 -3.27915e-008 -1.50946e-006 -2.39243e-007 1.58913e-007 2.38802e-007 6.8355e-008 -4.54038e-008 -6.82291e-008 6.8355e-008 -4.54038e-008 -6.82291e-008 1.64891 -20.7217 11.5843 72.6995 4.90963 19.718 -13.5214 -4.83914 38.9698 68.8544 2.5144 -15.5228 -1.07808e-006 -5.60562e-007 1.13792e-006 -6.0268e-007 -6.00521e-007 6.69851e-007 -1.07808e-006 -5.60562e-007 1.13792e-006 -1.07808e-006 -5.60562e-007 1.13792e-006 0.0150233 -9.21587e-005 3.8357e-006 -1.6793e-006 -1.16085e-006 1.80792e-006 -1.07808e-006 -5.60562e-007 1.13792e-006 0.0189339 -0.00119063 -6.03405e-005 -1.078e-006 -5.60378e-007 1.13802e-006 -1.07808e-006 -5.60562e-007 1.13792e-006 0.0122647 -0.00325057 -0.000672928 -4.76496e-007 4.03008e-008 4.68135e-007 -1.07808e-006 -5.60562e-007 1.13792e-006 -6.0268e-007 -6.00521e-007 6.69851e-007 -1.07808e-006 -5.60562e-007 1.13792e-006 -17.8466 -13.1083 -11.6175 0.5475 31.1042 0.151401 20.8932 -9.21718 -2.8184 5.94817e-008 -2.06305e-007 -5.43077e-007 7.75451 -18.5314 13.901 2.90854 46.7601 -1.87692 -12.5109 -21.7187 1.34356 -4.34404e-008 -9.61828e-008 -1.69482e-006 
-0.525471 63.7955 4.16072 -0 -4.59655 -0 -0.196134 2.40582 3.05726 -0.521233 4.79777 6.13083 -0.521232 4.79776 6.13082 20.8779 -27.6855 -9.3414 -0.00144349 7.50087 -10.0029 26.2497 11.1117 -74.8024 -38.466 -14.5307 -12.5497 -56.6918 -41.2859 -79.5798 -31.354 29.7291 10.8306 -4.44417e-007 2.9504e-007 4.43434e-007 -6.15347e-007 4.08517e-007 6.13986e-007 -5.12789e-007 3.40431e-007 5.11655e-007 -4.44417e-007 2.9504e-007 4.43434e-007 -0.0145874 -8.42012e-005 -2.18579e-007 -5.1279e-007 3.40365e-007 5.11698e-007 -4.44417e-007 2.9504e-007 4.43434e-007 -0.0187501 -0.00118615 6.35685e-005 -5.12785e-007 3.40347e-007 5.11716e-007 -4.44417e-007 2.9504e-007 4.43434e-007 -0.0123479 -0.00326743 0.00067929 -5.12773e-007 3.40378e-007 5.11706e-007 -4.44417e-007 2.9504e-007 4.43434e-007 -6.15347e-007 4.08517e-007 6.13986e-007 -5.12789e-007 3.40431e-007 5.11655e-007 1.47141 -20.5806 11.2974 72.9439 5.01899 19.7263 -13.4494 -4.78083 39.0626 68.7288 2.65671 -15.5399 1.0781e-006 5.60546e-007 -1.13793e-006 -1.0781e-006 -5.60546e-007 1.13793e-006 1.0781e-006 5.60546e-007 -1.13793e-006 1.0781e-006 5.60546e-007 -1.13793e-006 0.0149569 -8.91653e-005 2.02038e-007 1.07805e-006 5.60398e-007 -1.13801e-006 1.0781e-006 5.60546e-007 -1.13793e-006 0.0190257 -0.0011893 -5.73529e-005 1.67913e-006 1.161e-006 -1.8084e-006 1.0781e-006 5.60546e-007 -1.13793e-006 0.012167 -0.0032285 -0.000676306 1.07802e-006 5.60442e-007 -1.13802e-006 1.0781e-006 5.60546e-007 -1.13793e-006 -1.0781e-006 -5.60546e-007 1.13793e-006 1.0781e-006 5.60546e-007 -1.13793e-006 -17.8085 -13.397 -11.6088 0.673893 30.5141 0.0936717 20.7882 -8.8824 -3.10545 -8.84139e-007 1.22934e-007 -1.26537e-008 7.7422 -18.9452 13.9125 2.78453 46.3728 -1.78975 -12.4145 -21.4092 1.47076 8.22797e-007 -2.44971e-007 -1.13494e-008 
-0.525665 63.9042 3.9527 -0 -4.12064 -0 -0.208655 2.30614 3.0578 -0.540896 4.59779 6.13143 -0.540896 4.59779 6.13143 20.9135 -27.7649 -9.24128 -0.00144893 7.2825 -10.0029 26.2496 11.1118 -74.8024 -38.466 -14.5307 -12.5497 -56.6918 -41.2859 -79.5798 -31.3655 29.7288 10.8255 -3.76138e-007 2.49578e-007 3.75167e-007 3.41944e-007 -2.26889e-007 -3.41061e-007 -3.41944e-007 2.26889e-007 3.41061e-007 -3.76138e-007 2.49578e-007 3.75167e-007 -0.0145822 -8.42321e-005 -6.2271e-007 -3.41944e-007 2.26845e-007 3.4109e-007 -3.76138e-007 2.49578e-007 3.75167e-007 -0.0187668 -0.00117889 6.6248e-005 -3.41941e-007 2.26833e-007 3.41102e-007 -3.76138e-007 2.49578e-007 3.75167e-007 -0.0121981 -0.00322475 0.000674625 -3.41933e-007 2.26854e-007 3.41095e-007 -3.76138e-007 2.49578e-007 3.75167e-007 3.41944e-007 -2.26889e-007 -3.41061e-007 -3.41944e-007 2.26889e-007 3.41061e-007 1.29486 -20.4385 11.0112 73.1884 5.12837 19.7342 -13.3774 -4.72241 39.1553 68.6031 2.79905 -15.5567 1.07812e-006 5.60526e-007 -1.13795e-006 -1.19676e-007 3.61437e-007 -4.43214e-006 1.07812e-006 5.60526e-007 -1.13795e-006 1.07812e-006 5.60526e-007 -1.13795e-006 0.0149987 -9.28117e-005 -5.7268e-006 1.07807e-006 5.60377e-007 -1.13803e-006 1.07812e-006 5.60526e-007 -1.13795e-006 0.0189693 -0.00119287 -5.93453e-005 1.07804e-006 5.60342e-007 -1.13806e-006 1.07812e-006 5.60526e-007 -1.13795e-006 0.0123316 -0.00326916 -0.000681866 1.07804e-006 5.60421e-007 -1.13804e-006 1.07812e-006 5.60526e-007 -1.13795e-006 -1.19676e-007 3.61437e-007 -4.43214e-006 1.07812e-006 5.60526e-007 -1.13795e-006 -17.7695 -13.6853 -11.6001 0.796648 29.9228 0.0384128 20.6857 -8.54656 -3.39167 8.94531e-016 -1.98785e-016 6.36111e-015 7.73014 -19.3579 13.9241 2.66184 45.9839 -1.70424 -12.319 -21.0991 1.59723 -1.74927e-008 -1.05036e-007 -7.12213e-009 
